# AST/ASF file generated using VICON BodyLanguage
# -----------------------------------------------
:version 1.10
:name VICON
:units
  mass 1.0
  length 0.45
  angle deg
:documentation
   .ast/.asf automatically generated from VICON data using
   VICON BodyBuilder and BodyLanguage model FoxedUp or BRILLIANT.MOD
:root
   order TX TY TZ RX RY RZ
   axis XYZ
   position 0 0 0  
   orientation 0 0 0 
:bonedata
  begin
     id 1 
     name lhipjoint
     direction 0.573633 -0.743009 0.344793 
     length 2.46257 
     axis 0 0 0  XYZ
  end
  begin
     id 2 
     name lfemur
     direction 0.34202 -0.939693 0  
     length 7.3842  
     axis 0 0 20  XYZ
    dof rx ry rz
    limits (-160.0 20.0)
           (-70.0 70.0)
           (-60.0 70.0)
  end
  begin
     id 3 
     name ltibia
     direction 0.34202 -0.939693 0   
     length 7.50407   
     axis 0 0 20   XYZ
    dof rx
    limits (-10.0 170.0)
  end
  begin
     id 4 
     name lfoot
     direction 0.110749 -0.304281 0.946123   
     length 1.95925   
     axis -90 7.62852e-016 20   XYZ
    dof rx rz
    limits (-45.0 90.0)
           (-70.0 20.0)
  end
  begin
     id 5 
     name ltoes
     direction 1.53554e-011 -4.21843e-011 1   
     length 0.978318   
     axis -90 7.62852e-016 20   XYZ
    dof rx
    limits (-90.0 20.0)
  end
  begin
     id 6 
     name rhipjoint
     direction -0.488109 -0.791693 0.367385   
     length 2.31113  
     axis 0 0 0  XYZ 
  end
  begin
     id 7 
     name rfemur
     direction -0.34202 -0.939693 0   
     length 7.40965   
     axis 0 0 -20   XYZ
    dof rx ry rz
    limits (-160.0 20.0)
           (-70.0 70.0)
           (-70.0 60.0)
  end
  begin
     id 8 
     name rtibia
     direction -0.34202 -0.939693 0   
     length 7.55548   
     axis 0 0 -20   XYZ
    dof rx
    limits (-10.0 170.0)
 end
 begin
     id 9 
     name rfoot
     direction -0.127594 -0.350561 0.927808   
     length 2.07199  
     axis -90 -7.62852e-016 -20   XYZ
    dof rx rz
    limits (-45.0 90.0)
           (-20.0 70.0)
  end
  begin
     id 10 
     name rtoes
     direction -1.53542e-011 -4.21909e-011 1   
     length 1.02667   
     axis -90 -7.62852e-016 -20   XYZ
    dof rx
    limits (-90.0 20.0)
  end
  begin
     id 11 
     name lowerback
     direction -0.0103342 0.997298 -0.0727278   
     length 2.02836   
     axis 0 0 0   XYZ
    dof rx ry rz
    limits (-20.0 45.0)
           (-30.0 30.0)
           (-30.0 30.0)
  end
  begin
     id 12 
     name upperback
     direction 0.0171146 0.999786 -0.011606   
     length 2.03179   
     axis 0 0 0   XYZ
    dof rx ry rz
    limits (-20.0 45.0)
           (-30.0 30.0)
           (-30.0 30.0)
  end
  begin
     id 13 
     name thorax
     direction 0.0216927 0.999513 0.0224343   
     length 2.03882   
     axis 0 0 0   XYZ
    dof rx ry rz
    limits (-20.0 45.0)
           (-30.0 30.0)
           (-30.0 30.0)
  end
  begin
     id 14 
     name lowerneck
     direction 0.000989287 0.993907 0.110221   
     length 1.75428   
     axis 0 0 0   XYZ
    dof rx ry rz
    limits (-20.0 45.0)
           (-30.0 30.0)
           (-30.0 30.0)
  end
  begin
     id 15 
     name upperneck
     direction -0.0172474 0.994813 -0.100253   
     length 1.77058   
     axis 0 0 0   XYZ
    dof rx ry rz
    limits (-20.0 45.0)
           (-30.0 30.0)
           (-30.0 30.0)
  end
  begin
     id 16
     name head
     direction -0.00486455 0.99894 -0.0457663  
     length 1.77427  
     axis 0 0 0   XYZ
    dof rx ry rz
    limits (-20.0 45.0)
           (-30.0 30.0)
           (-30.0 30.0)
  end
  begin
     id 17 
     name lclavicle
     direction 0.927314 0.333734 -0.169441  
     length 3.97584  
     axis 0 0 0   XYZ
    dof ry rz
    limits (-20.0 10.0)
           (0.0 20.0)
  end
  begin
     id 18 
     name lhumerus
     direction 1 -4.48965e-011 -3.25313e-028   
     length 4.76468   
     axis 180 -30 -90   XYZ
    dof rx ry rz
    limits (-60.0 90.0)
           (-90.0 90.0)
           (-90.0 90.0)
  end
  begin
     id 19
     name lradius
     direction 1 -4.48969e-011 -2.8465e-028   
     length 3.52712   
     axis -180 -30 -90   XYZ
    dof rx
    limits (-10.0 170.0)
  end
  begin
     id 20
     name lwrist
     direction 1 -4.4896e-011 -7.78665e-028   
     length 1.76356   
     axis 1.91374e-015 90 90   XYZ
    dof ry
    limits (-180.0 0.0)
 end
  begin
     id 21 
     name lhand
     direction 1 -4.48959e-011 -1.55733e-027   
     length 0.859564   
     axis 9.9371e-016 90 90   XYZ
    dof rx rz
    limits (-90.0 90.0)
           (-45.0 45.0)
  end
  begin
     id 22 
     name lfingers
     direction 1 -4.48965e-011 -3.11466e-027   
     length 0.693002   
     axis 1.98742e-015 90 90   XYZ
    dof rx
    limits (0.0 90.0)
  end
  begin
     id 23
     name lthumb
     direction 0.707107 -6.34948e-011 0.707107   
     length 0.995017   
     axis -90 45 2.85299e-015   XYZ
    dof rx rz
    limits (-45.0 45.0)
           (-45.0 45.0)
  end
  begin
     id 24 
     name rclavicle
     direction -0.899388 0.348209 -0.264294   
     length 3.68366  
     axis 0 0 0   XYZ 
    dof ry rz
    limits (-10.0 20.0)
           (-20.0 0.0)
  end
  begin
     id 25 
     name rhumerus
     direction -1 -4.48965e-011 -3.01536e-027  
     length 4.90577   
     axis 180 30 90   XYZ
    dof rx ry rz
    limits (-90.0 60.0)
           (-90.0 90.0)
           (-90.0 90.0)
  end
  begin
     id 26 
     name rradius
     direction -1 -4.48966e-011 3.93291e-027   
     length 3.42692   
     axis -180 30 90   XYZ
    dof rx
    limits (-10.0 170.0)
  end
  begin
     id 27 
     name rwrist
     direction -1 -4.48969e-011 -7.78665e-028   
     length 1.71346   
     axis 1.91374e-015 -90 -90   XYZ
    dof ry
    limits (-180.0 0.0)
  end
  begin
     id 28
     name rhand
     direction -1 -4.48967e-011 -1.55733e-027   
     length 0.740957   
     axis 9.9371e-016 -90 -90   XYZ
    dof rx rz
    limits (-90.0 90.0)
           (-45.0 45.0)
  end
  begin
     id 29
     name rfingers
     direction -1 -4.48949e-011 -3.11466e-027   
     length 0.597378   
     axis 1.98742e-015 -90 -90   XYZ
    dof rx
    limits (0.0 90.0)
  end
  begin
     id 30
     name rthumb
     direction -0.707107 -6.34931e-011 0.707107   
     length 0.857719   
     axis -90 -45 -2.85299e-015   XYZ
    dof rx rz
    limits (-45.0 45.0)
           (-45.0 45.0)
  end
:hierarchy
  begin
    root lhipjoint rhipjoint lowerback
    lhipjoint lfemur
    lfemur ltibia
    ltibia lfoot
    lfoot ltoes
    rhipjoint rfemur
    rfemur rtibia
    rtibia rfoot
    rfoot rtoes
    lowerback upperback
    upperback thorax
    thorax lowerneck lclavicle rclavicle
    lowerneck upperneck
    upperneck head
    lclavicle lhumerus
    lhumerus lradius
    lradius lwrist
    lwrist lhand lthumb
    lhand lfingers
    rclavicle rhumerus
    rhumerus rradius
    rradius rwrist
    rwrist rhand rthumb
    rhand rfingers
  end

#!OML:ASF E:\I on waltz\AllaLogoMonkeySwing\Project 1\Capture day 1\Session 1\Subject1.ASF
:FULLY-SPECIFIED
:DEGREES
177
root 1.16069 5.81962 -1.15334 -5.98974 13.796 -0.861277
lowerback 48.0521 -7.79413 7.348
upperback 14.612 -5.4607 0.272584
thorax -4.09752 -2.19052 -1.01274
lowerneck -4.19001 -0.947405 -3.12926
upperneck 17.0701 -1.09662 0.985879
head 5.86811 -0.642948 0.763876
rclavicle -1.78906e-014 -4.96962e-015
rhumerus 25.1055 4.73209 -39.911
rradius 68.0567
rwrist -17.1989
rhand -2.56208 -35.9077
rfingers 7.12502
rthumb 23.1342 -64.5387
lclavicle -1.78906e-014 -4.96962e-015
lhumerus 27.0162 -8.937 28.8638
lradius 69.7795
lwrist 17.1413
lhand -6.49554 -19.3003
lfingers 7.12502
lthumb 19.3559 9.75638
rfemur -118.914 -25.6773 30.9296
rtibia 34.0411
rfoot 155.758 15.4515
rtoes 25.9746
lfemur -115.102 -3.10103 -30.8835
ltibia 38.9637
lfoot 156.073 3.13655
ltoes -11.6472
178
root 1.14967 5.67737 -1.19302 -7.4637 13.7394 -1.18141
lowerback 47.836 -7.72605 7.2773
upperback 14.6434 -5.44463 0.303393
thorax -4.02874 -2.19112 -0.965564
lowerneck -4.7026 -0.973197 -3.47003
upperneck 16.8258 -1.14586 1.39366
head 5.88497 -0.657119 0.943468
rclavicle 2.22639e-014 3.97569e-015
rhumerus 25.2784 5.07864 -39.7362
rradius 68.4725
rwrist -17.2139
rhand -2.40086 -36.0298
rfingers 7.12502
rthumb 23.2889 -64.6412
lclavicle 2.22639e-014 3.97569e-015
lhumerus 27.3962 -8.96248 29.2266
lradius 70.0498
lwrist 16.7407
lhand -6.04962 -19.3276
lfingers 7.12502
lthumb 19.7847 9.68546
rfemur -118.858 -25.6285 30.9881
rtibia 33.4562
rfoot 156.374 15.6938
rtoes 25.4897
lfemur -115.026 -2.90805 -30.6811
ltibia 38.2707
lfoot 156.591 3.40927
ltoes -10.9225
179
root 1.13973 5.54112 -1.2348 -8.90519 13.7256 -1.50291
lowerback 47.4857 -7.69148 7.23663
upperback 14.6384 -5.47388 0.285853
thorax -3.98778 -2.21111 -0.969628
lowerneck -4.97912 -0.990376 -3.74239
upperneck 16.5196 -1.20016 1.83015
head 5.84151 -0.667331 1.12104
rclavicle 5.96354e-015 1.21259e-014
rhumerus 25.3354 5.44759 -39.7679
rradius 68.855
rwrist -17.1906
rhand -2.10801 -36.0206
rfingers 7.12502
rthumb 23.5698 -64.5963
lclavicle 5.96354e-015 1.21259e-014
lhumerus 27.7017 -9.1289 29.5674
lradius 70.316
lwrist 16.4594
lhand -6.15997 -19.3685
lfingers 7.12502
lthumb 19.6786 9.65546
rfemur -118.827 -25.6294 31.0982
rtibia 33.0119
rfoot 157.237 16.0762
rtoes 24.8533
lfemur -114.926 -2.81319 -30.542
ltibia 37.7159
lfoot 157.12 3.50706
ltoes -11.0207
180
root 1.12824 5.41091 -1.27891 -10.4323 13.6969 -1.76814
lowerback 47.1888 -7.62096 7.07974
upperback 14.6258 -5.50866 0.241547
thorax -3.96344 -2.23692 -0.944582
lowerneck -4.97081 -0.990283 -3.84319
upperneck 15.9687 -1.23545 2.13342
head 5.67023 -0.667593 1.22939
rclavicle -1.08338e-014 1.26228e-014
rhumerus 25.3503 5.83814 -39.9086
rradius 69.1796
rwrist -17.1363
rhand -1.80754 -35.9349
rfingers 7.12502
rthumb 23.858 -64.4732
lclavicle -1.08338e-014 1.26228e-014
lhumerus 27.909 -9.30814 30.062
lradius 70.5887
lwrist 16.3257
lhand -6.36968 -19.4655
lfingers 7.12502
lthumb 19.477 9.57898
rfemur -118.563 -25.6571 31.0472
rtibia 32.5987
rfoot 158.047 16.2778
rtoes 25.0017
lfemur -114.667 -2.73204 -30.5124
ltibia 37.3396
lfoot 157.699 3.45867
ltoes -11.7053
181
root 1.11438 5.28175 -1.32367 -12.062 13.5672 -2.09728
lowerback 46.026 -7.38253 6.81671
upperback 15.5352 -5.5069 0.289304
thorax -3.90713 -2.23889 -0.90443
lowerneck -4.84816 -0.962096 -3.84458
upperneck 15.2181 -1.21876 2.27216
head 5.41503 -0.648543 1.27231
rclavicle 5.86415e-015 3.43897e-014
rhumerus 25.304 6.2284 -40.0102
rradius 69.5279
rwrist -17.0703
rhand -1.40394 -35.9191
rfingers 7.12502
rthumb 24.245 -64.4062
lclavicle 5.86415e-015 3.43897e-014
lhumerus 28.0032 -9.4445 30.6882
lradius 70.952
lwrist 16.4199
lhand -5.70649 -19.2658
lfingers 7.12502
lthumb 20.1145 9.7129
rfemur -118.103 -25.6051 30.9601
rtibia 32.2124
rfoot 158.767 16.3206
rtoes 25.2748
lfemur -114.331 -2.51122 -30.339
ltibia 36.9733
lfoot 158.261 3.59956
ltoes -11.6335
